name rise49.8558peak67.6521fall70.3087.mot
datacolumns 19
datarows 27
range 15.46994600000000 15.51327900000000
endheader
time	ground_force1_vx	ground_force1_vy	ground_force1_vz	ground_force1_px	ground_force1_py	ground_force1_pz	ground_force2_vx	ground_force2_vy	ground_force2_vz	ground_force2_px	ground_force2_py	ground_force2_pz	ground_torque1_x	ground_torque1_y	ground_torque1_z	ground_torque2_x	ground_torque2_y	ground_torque2_z	
15.46994600000000	9.77194700000000	695.51296400000001	42.62620700000000	0.30090200000000	0.00000000000000	0.12397400000000	0.00000000000000	0.00000000000000	0.00000000000000	0.00000000000000	0.00000000000000	0.00000000000000	0.00000000000000	22.99208100000000	0.00000000000000	0.00000000000000	0.00000000000000	0.00000000000000	
15.47161000000000	9.43694900000000	696.00430300000005	42.64970000000000	0.30009200000000	0.00000000000000	0.12398800000000	0.00000000000000	0.00000000000000	0.00000000000000	0.00000000000000	0.00000000000000	0.00000000000000	0.00000000000000	23.04493800000000	0.00000000000000	0.00000000000000	0.00000000000000	0.00000000000000	
15.47327600000000	9.10000900000000	696.53073700000004	42.67942000000000	0.29930700000000	0.00000000000000	0.12400100000000	0.00000000000000	0.00000000000000	0.00000000000000	0.00000000000000	0.00000000000000	0.00000000000000	0.00000000000000	23.10408600000000	0.00000000000000	0.00000000000000	0.00000000000000	0.00000000000000	
15.47494500000000	8.76059600000000	697.09059800000000	42.71500000000000	0.29854800000000	0.00000000000000	0.12401300000000	0.00000000000000	0.00000000000000	0.00000000000000	0.00000000000000	0.00000000000000	0.00000000000000	0.00000000000000	23.16933200000000	0.00000000000000	0.00000000000000	0.00000000000000	0.00000000000000	
15.47660800000000	8.41818200000000	697.68228199999999	42.75607700000000	0.29781200000000	0.00000000000000	0.12402400000000	0.00000000000000	0.00000000000000	0.00000000000000	0.00000000000000	0.00000000000000	0.00000000000000	0.00000000000000	23.24049000000000	0.00000000000000	0.00000000000000	0.00000000000000	0.00000000000000	
15.47827700000000	8.07224600000000	698.30426100000000	42.80229900000000	0.29709800000000	0.00000000000000	0.12403400000000	0.00000000000000	0.00000000000000	0.00000000000000	0.00000000000000	0.00000000000000	0.00000000000000	0.00000000000000	23.31737000000000	0.00000000000000	0.00000000000000	0.00000000000000	0.00000000000000	
15.47994000000000	7.72227400000000	698.95508700000005	42.85332400000000	0.29640500000000	0.00000000000000	0.12404200000000	0.00000000000000	0.00000000000000	0.00000000000000	0.00000000000000	0.00000000000000	0.00000000000000	0.00000000000000	23.39978900000000	0.00000000000000	0.00000000000000	0.00000000000000	0.00000000000000	
15.48161200000000	7.36776100000000	699.63339499999995	42.90882100000000	0.29573200000000	0.00000000000000	0.12405000000000	0.00000000000000	0.00000000000000	0.00000000000000	0.00000000000000	0.00000000000000	0.00000000000000	0.00000000000000	23.48756200000000	0.00000000000000	0.00000000000000	0.00000000000000	0.00000000000000	
15.48327300000000	7.00820900000000	700.33791699999995	42.96847100000000	0.29507700000000	0.00000000000000	0.12405600000000	0.00000000000000	0.00000000000000	0.00000000000000	0.00000000000000	0.00000000000000	0.00000000000000	0.00000000000000	23.58051100000000	0.00000000000000	0.00000000000000	0.00000000000000	0.00000000000000	
15.48494000000000	6.64313600000000	701.06747800000005	43.03196900000000	0.29443800000000	0.00000000000000	0.12406100000000	0.00000000000000	0.00000000000000	0.00000000000000	0.00000000000000	0.00000000000000	0.00000000000000	0.00000000000000	23.67845800000000	0.00000000000000	0.00000000000000	0.00000000000000	0.00000000000000	
15.48660800000000	6.27206900000000	701.82100600000001	43.09902300000000	0.29381400000000	0.00000000000000	0.12406500000000	0.00000000000000	0.00000000000000	0.00000000000000	0.00000000000000	0.00000000000000	0.00000000000000	0.00000000000000	23.78123100000000	0.00000000000000	0.00000000000000	0.00000000000000	0.00000000000000	
15.48827200000000	5.89455300000000	702.59753300000000	43.16935700000000	0.29320400000000	0.00000000000000	0.12406700000000	0.00000000000000	0.00000000000000	0.00000000000000	0.00000000000000	0.00000000000000	0.00000000000000	0.00000000000000	23.88865800000000	0.00000000000000	0.00000000000000	0.00000000000000	0.00000000000000	
15.48995800000000	5.51014600000000	703.39619900000002	43.24271100000000	0.29260600000000	0.00000000000000	0.12406800000000	0.00000000000000	0.00000000000000	0.00000000000000	0.00000000000000	0.00000000000000	0.00000000000000	0.00000000000000	24.00057600000000	0.00000000000000	0.00000000000000	0.00000000000000	0.00000000000000	
15.49161100000000	5.11842500000000	704.21625500000005	43.31884200000000	0.29201700000000	0.00000000000000	0.12406800000000	0.00000000000000	0.00000000000000	0.00000000000000	0.00000000000000	0.00000000000000	0.00000000000000	0.00000000000000	24.11682100000000	0.00000000000000	0.00000000000000	0.00000000000000	0.00000000000000	
15.49327700000000	4.71898300000000	705.05706099999998	43.39752500000000	0.29143800000000	0.00000000000000	0.12406700000000	0.00000000000000	0.00000000000000	0.00000000000000	0.00000000000000	0.00000000000000	0.00000000000000	0.00000000000000	24.23723800000000	0.00000000000000	0.00000000000000	0.00000000000000	0.00000000000000	
15.49494000000000	4.31143600000000	705.91809400000000	43.47855200000000	0.29086400000000	0.00000000000000	0.12406400000000	0.00000000000000	0.00000000000000	0.00000000000000	0.00000000000000	0.00000000000000	0.00000000000000	0.00000000000000	24.36167400000000	0.00000000000000	0.00000000000000	0.00000000000000	0.00000000000000	
15.49661100000000	3.89541900000000	706.79893900000002	43.56173600000000	0.29029600000000	0.00000000000000	0.12406000000000	0.00000000000000	0.00000000000000	0.00000000000000	0.00000000000000	0.00000000000000	0.00000000000000	0.00000000000000	24.48998100000000	0.00000000000000	0.00000000000000	0.00000000000000	0.00000000000000	
15.49827100000000	3.47058900000000	707.69929800000000	43.64690800000000	0.28973100000000	0.00000000000000	0.12405600000000	0.00000000000000	0.00000000000000	0.00000000000000	0.00000000000000	0.00000000000000	0.00000000000000	0.00000000000000	24.62201600000000	0.00000000000000	0.00000000000000	0.00000000000000	0.00000000000000	
15.49995000000000	3.03662800000000	708.61898099999996	43.73391900000000	0.28916800000000	0.00000000000000	0.12405000000000	0.00000000000000	0.00000000000000	0.00000000000000	0.00000000000000	0.00000000000000	0.00000000000000	0.00000000000000	24.75764000000000	0.00000000000000	0.00000000000000	0.00000000000000	0.00000000000000	
15.50160400000000	2.59324100000000	709.55790900000000	43.82264100000000	0.28860500000000	0.00000000000000	0.12404200000000	0.00000000000000	0.00000000000000	0.00000000000000	0.00000000000000	0.00000000000000	0.00000000000000	0.00000000000000	24.89672000000000	0.00000000000000	0.00000000000000	0.00000000000000	0.00000000000000	
15.50327600000000	2.14015900000000	710.51610800000003	43.91296500000000	0.28803900000000	0.00000000000000	0.12403400000000	0.00000000000000	0.00000000000000	0.00000000000000	0.00000000000000	0.00000000000000	0.00000000000000	0.00000000000000	25.03912700000000	0.00000000000000	0.00000000000000	0.00000000000000	0.00000000000000	
15.50494600000000	1.67713900000000	711.49370899999997	44.00480700000000	0.28747100000000	0.00000000000000	0.12402500000000	0.00000000000000	0.00000000000000	0.00000000000000	0.00000000000000	0.00000000000000	0.00000000000000	0.00000000000000	25.18473800000000	0.00000000000000	0.00000000000000	0.00000000000000	0.00000000000000	
15.50661000000000	1.20396700000000	712.49094100000002	44.09809900000000	0.28689800000000	0.00000000000000	0.12401500000000	0.00000000000000	0.00000000000000	0.00000000000000	0.00000000000000	0.00000000000000	0.00000000000000	0.00000000000000	25.33343400000000	0.00000000000000	0.00000000000000	0.00000000000000	0.00000000000000	
15.50827500000000	0.72045600000000	713.50813000000005	44.19279800000000	0.28631800000000	0.00000000000000	0.12400400000000	0.00000000000000	0.00000000000000	0.00000000000000	0.00000000000000	0.00000000000000	0.00000000000000	0.00000000000000	25.48510000000000	0.00000000000000	0.00000000000000	0.00000000000000	0.00000000000000	
15.50994600000000	0.22644700000000	714.54569000000004	44.28888100000000	0.28573000000000	0.00000000000000	0.12399300000000	0.00000000000000	0.00000000000000	0.00000000000000	0.00000000000000	0.00000000000000	0.00000000000000	0.00000000000000	25.63962700000000	0.00000000000000	0.00000000000000	0.00000000000000	0.00000000000000	
15.51160800000000	-0.27818700000000	715.60411799999997	44.38634600000000	0.28513400000000	0.00000000000000	0.12398000000000	0.00000000000000	0.00000000000000	0.00000000000000	0.00000000000000	0.00000000000000	0.00000000000000	0.00000000000000	25.79691100000000	0.00000000000000	0.00000000000000	0.00000000000000	0.00000000000000	
15.51327900000000	-0.79354400000000	716.68398900000000	44.48521200000000	0.28452600000000	0.00000000000000	0.12396700000000	0.00000000000000	0.00000000000000	0.00000000000000	0.00000000000000	0.00000000000000	0.00000000000000	0.00000000000000	25.95685100000000	0.00000000000000	0.00000000000000	0.00000000000000	0.00000000000000	
